<?xml version="1.0" standalone="no"?>
<!DOCTYPE svg PUBLIC "-//W3C//DTD SVG 20010904//EN"
 "http://www.w3.org/TR/2001/REC-SVG-20010904/DTD/svg10.dtd">
<svg version="1.0" xmlns="http://www.w3.org/2000/svg"
 width="260.000000pt" height="260.000000pt" viewBox="0 0 260.000000 260.000000"
 preserveAspectRatio="xMidYMid meet">
<metadata>
Created by potrace 1.11, written by Peter Selinger 2001-2013
</metadata>
<g transform="translate(0.000000,260.000000) scale(0.100000,-0.100000)"
fill="#000000" stroke="none">
<path d="M0 1300 l0 -1300 1300 0 1300 0 0 1300 0 1300 -1300 0 -1300 0 0
-1300z m529 323 c-25 -27 -52 -57 -59 -68 -8 -11 6 2 31 28 32 33 51 46 63 41
14 -5 14 -9 4 -22 -10 -12 -10 -14 0 -8 7 4 12 2 12 -4 0 -6 5 -8 10 -5 23 14
7 -12 -31 -51 -24 -24 -48 -40 -55 -37 -8 3 -21 0 -29 -7 -12 -10 -17 -7 -25
16 -13 34 -7 62 21 99 22 27 76 65 94 65 5 0 -11 -21 -36 -47z m81 18 c-7 -14
-7 -22 0 -26 14 -9 3 -25 -13 -19 -7 2 -13 18 -13 34 -1 23 3 30 18 30 15 0
17 -3 8 -19z m50 -39 c0 -10 -29 -50 -65 -89 l-64 -70 45 -32 44 -32 28 33
c97 117 132 142 132 93 0 -23 2 -25 22 -14 18 10 24 8 35 -7 39 -53 -57 -168
-133 -160 -23 3 -28 8 -27 25 2 18 -1 20 -26 15 -16 -4 -32 -1 -35 5 -5 7 -18
3 -40 -14 -18 -14 -38 -25 -44 -25 -7 0 -12 -7 -12 -15 0 -8 -4 -15 -10 -15
-5 0 -10 -6 -10 -14 0 -7 -18 -26 -40 -41 -22 -15 -73 -71 -114 -124 -76 -99
-100 -124 -127 -134 -19 -6 -39 10 -39 31 0 18 200 223 211 217 8 -6 69 61 69
75 0 18 -18 11 -25 -9 -3 -11 -13 -25 -22 -33 -14 -10 -13 -6 3 22 12 21 29
36 44 38 18 3 20 6 9 13 -11 7 -11 9 3 9 9 0 26 14 38 30 20 29 21 32 6 55
-15 23 -14 25 35 77 27 29 57 65 66 81 20 31 43 36 43 9z m495 -2 c0 -8 -20
-116 -45 -238 l-45 -224 24 -19 c32 -26 124 -26 193 1 28 11 54 17 57 15 2 -3
-4 -18 -16 -33 -27 -36 -89 -54 -194 -56 -148 -2 -151 9 -89 317 22 109 40
209 40 222 0 17 7 25 23 28 35 7 52 3 52 -13z m465 -27 c0 -2 -11 -25 -24 -51
-50 -99 -88 -225 -90 -294 -1 -57 2 -70 23 -92 79 -84 221 41 262 231 30 138
51 173 106 173 23 0 23 -1 9 -28 -38 -73 -84 -313 -72 -375 8 -42 40 -57 82
-38 19 8 24 8 24 -3 0 -26 -41 -51 -86 -51 -61 0 -86 27 -92 99 l-4 55 -38
-48 c-38 -48 -123 -101 -162 -101 -37 0 -88 29 -108 62 -32 50 -23 155 24 278
55 140 53 131 17 124 -35 -7 -75 14 -83 43 -4 17 4 18 104 18 59 1 108 -1 108
-2z m573 -180 c10 -18 21 -33 25 -33 4 0 24 17 44 38 40 40 77 113 78 150 0
19 5 22 35 22 27 0 35 -4 35 -17 0 -34 -59 -121 -120 -175 l-60 -55 40 -60
c56 -84 122 -143 160 -143 16 0 30 -4 30 -9 0 -11 -58 -61 -71 -61 -41 0 -126
83 -182 177 -18 29 -35 53 -38 53 -4 0 -25 -24 -47 -53 -43 -55 -81 -130 -82
-159 0 -10 -4 -18 -10 -18 -12 0 -50 37 -50 48 0 17 59 99 114 159 l57 63 -29
62 c-38 80 -56 142 -49 162 4 9 17 20 29 25 21 8 24 3 48 -68 15 -42 34 -91
43 -108z"/>
<path d="M494 1618 l-19 -23 23 19 c21 18 27 26 19 26 -2 0 -12 -10 -23 -22z"/>
<path d="M694 1443 l-58 -68 50 46 c27 26 54 45 61 42 6 -2 15 1 19 8 5 9 2
10 -9 6 -20 -7 -22 4 -5 21 7 7 9 12 6 12 -3 0 -32 -30 -64 -67z"/>
<path d="M800 1478 c-2 -5 -3 -14 -4 -20 -1 -7 -7 -12 -13 -11 -6 1 -19 -8
-29 -20 -19 -22 -19 -22 2 -4 11 9 23 15 26 12 9 -9 30 23 25 37 -3 7 -6 10
-7 6z"/>
<path d="M287 1131 c-53 -54 -97 -101 -97 -105 0 -20 27 5 109 99 50 58 90
105 88 105 -2 0 -47 -44 -100 -99z"/>
</g>
</svg>
