<?xml version="1.0" standalone="no"?>
<!DOCTYPE svg PUBLIC "-//W3C//DTD SVG 20010904//EN"
 "http://www.w3.org/TR/2001/REC-SVG-20010904/DTD/svg10.dtd">
<svg version="1.0" xmlns="http://www.w3.org/2000/svg"
 width="512.000000pt" height="512.000000pt" viewBox="0 0 512.000000 512.000000"
 preserveAspectRatio="xMidYMid meet">
<metadata>
Created by potrace 1.14, written by Peter Selinger 2001-2017
</metadata>
<g transform="translate(0.000000,512.000000) scale(0.100000,-0.100000)"
fill="#000000" stroke="none">
<path d="M130 5107 c-47 -15 -107 -78 -120 -125 -7 -28 -9 -774 -8 -2438 l3
-2399 21 -40 c11 -22 40 -53 63 -70 l43 -30 2421 0 2422 0 40 21 c22 11 54 40
70 63 l30 43 0 2421 0 2422 -21 40 c-11 22 -40 54 -63 70 l-43 30 -2411 2
c-1737 1 -2422 -2 -2447 -10z m2200 -1452 l0 -195 -685 0 -685 0 0 -425 0
-425 600 0 600 0 0 -195 0 -195 -600 0 -600 0 0 -605 0 -605 -240 0 -240 0 0
1420 0 1420 925 0 925 0 0 -195z m1540 158 c489 -131 782 -451 887 -968 15
-76 18 -140 18 -420 0 -309 -1 -337 -23 -434 -102 -456 -371 -777 -762 -911
-175 -60 -209 -63 -702 -67 l-458 -4 0 1421 0 1421 463 -3 462 -4 115 -31z"/>
<path d="M3300 2430 l0 -1042 198 5 c224 5 270 14 401 79 183 89 321 287 376
538 46 216 42 672 -8 870 -62 242 -194 419 -381 510 -126 62 -176 72 -393 77
l-193 5 0 -1042z"/>
</g>
</svg>
