<?xml version="1.0" standalone="no"?>
<!DOCTYPE svg PUBLIC "-//W3C//DTD SVG 20010904//EN"
 "http://www.w3.org/TR/2001/REC-SVG-20010904/DTD/svg10.dtd">
<svg version="1.0" xmlns="http://www.w3.org/2000/svg"
 width="520.000000pt" height="520.000000pt" viewBox="0 0 520.000000 520.000000"
 preserveAspectRatio="xMidYMid meet">
<metadata>
Created by potrace 1.14, written by Peter Selinger 2001-2017
</metadata>
<g transform="translate(0.000000,520.000000) scale(0.100000,-0.100000)"
fill="#000000" stroke="none">
<path d="M275 5193 c-86 -21 -172 -92 -209 -172 l-21 -46 -2 -2325 c-2 -2071
-1 -2330 13 -2369 17 -51 44 -91 93 -141 19 -19 28 -27 21 -16 -11 13 -4 11
24 -8 21 -14 46 -26 55 -26 13 0 13 -2 3 -9 -11 -7 -10 -9 3 -14 9 -4 13 -3
10 2 -9 15 14 24 29 12 7 -6 21 -8 31 -5 10 4 21 1 26 -7 6 -10 9 -10 9 -2 0
15 50 13 50 -2 0 -5 5 -3 10 5 8 13 13 13 31 2 11 -8 19 -10 16 -5 -3 5 10 10
29 10 19 1 34 -4 34 -10 0 -7 5 -5 10 3 8 13 13 13 31 2 11 -8 19 -10 16 -5
-3 5 10 10 29 10 19 1 34 -4 34 -10 0 -7 5 -5 10 3 8 13 13 13 31 2 11 -8 19
-9 15 -4 -8 13 58 11 66 -2 5 -8 8 -7 8 2 0 17 20 15 44 -6 14 -12 17 -12 9
-1 -10 13 -7 15 22 16 20 1 35 -4 35 -10 0 -7 5 -5 10 3 8 13 13 13 31 2 11
-8 19 -10 16 -5 -3 5 10 10 29 10 19 1 34 -4 34 -10 0 -7 5 -5 10 3 8 13 13
13 31 2 11 -8 19 -10 16 -5 -3 5 10 10 29 10 19 1 34 -4 34 -10 0 -7 5 -5 10
3 8 13 13 13 31 2 11 -8 19 -10 16 -5 -3 5 10 10 29 10 19 1 34 -4 34 -10 0
-7 5 -5 10 3 8 13 13 13 31 2 11 -8 19 -10 16 -5 -3 5 10 10 29 10 19 1 34 -4
34 -10 0 -7 5 -5 10 3 8 13 13 13 31 2 11 -8 19 -10 16 -5 -3 5 10 10 29 10
19 1 34 -4 34 -10 0 -7 5 -5 10 3 8 13 13 13 31 2 11 -8 19 -10 16 -5 -3 5 10
10 29 10 19 1 34 -4 34 -10 0 -7 5 -5 10 3 8 13 13 13 31 2 11 -8 19 -10 16
-5 -3 5 10 10 29 10 19 1 34 -4 34 -10 0 -7 5 -5 10 3 8 13 13 13 31 2 11 -8
19 -10 16 -5 -3 5 10 10 29 10 19 1 34 -4 34 -10 0 -7 5 -5 10 3 8 13 13 13
31 2 11 -8 19 -10 16 -5 -3 5 10 10 29 10 19 1 34 -4 34 -10 0 -7 5 -5 10 3 8
13 13 13 31 2 11 -8 19 -10 16 -5 -3 5 10 10 29 10 19 1 34 -4 34 -10 0 -7 5
-5 10 3 8 13 13 13 31 2 11 -8 19 -10 16 -5 -3 5 10 10 29 10 19 1 34 -4 34
-10 0 -7 5 -5 10 3 8 13 13 13 31 2 11 -8 19 -10 16 -5 -3 5 10 10 29 10 19 1
34 -4 34 -10 0 -7 5 -5 10 3 8 13 13 13 31 2 11 -8 19 -10 16 -5 -3 5 10 10
29 10 19 1 34 -4 34 -10 0 -7 5 -5 10 3 8 13 13 13 31 2 11 -8 19 -10 16 -5
-3 5 10 10 29 10 19 1 34 -4 34 -10 0 -7 5 -5 10 3 8 13 13 13 31 2 11 -8 19
-10 16 -5 -3 5 10 10 29 10 19 1 34 -4 34 -10 0 -7 5 -5 10 3 8 13 13 13 31 2
11 -8 19 -10 16 -5 -3 5 10 10 29 10 19 1 34 -4 34 -10 0 -7 5 -5 10 3 8 13
13 13 31 2 11 -8 19 -10 16 -5 -3 5 10 10 29 10 19 1 34 -4 34 -10 0 -7 5 -5
10 3 8 13 13 13 31 2 11 -8 19 -10 16 -5 -3 5 10 10 29 10 19 1 34 -4 34 -10
0 -7 5 -5 10 3 8 13 13 13 31 2 11 -8 19 -10 16 -5 -3 5 10 10 29 10 19 1 34
-4 34 -10 0 -7 5 -5 10 3 8 13 13 13 31 2 11 -8 19 -10 16 -5 -3 5 10 10 29
10 19 1 34 -4 34 -10 0 -7 5 -5 10 3 8 13 13 13 31 2 11 -8 19 -10 16 -5 -3 5
10 10 29 10 19 1 34 -4 34 -10 0 -7 5 -5 10 3 8 13 13 13 31 2 11 -8 19 -10
16 -5 -3 5 10 10 29 10 19 1 34 -4 34 -10 0 -7 5 -5 10 3 8 13 13 13 31 2 11
-8 19 -10 16 -5 -3 5 10 10 29 10 19 1 34 -4 34 -10 0 -7 5 -5 10 3 8 13 13
13 31 2 11 -8 19 -10 16 -5 -3 5 10 10 29 10 19 1 34 -4 34 -10 0 -7 5 -5 10
3 8 13 13 13 31 2 11 -8 19 -10 16 -5 -3 5 10 10 29 10 19 1 34 -4 34 -10 0
-7 5 -5 10 3 8 13 13 13 31 2 11 -8 19 -10 16 -5 -3 5 10 10 29 10 19 1 34 -4
34 -10 0 -7 5 -5 10 3 8 13 13 13 31 2 11 -8 19 -10 16 -5 -3 5 10 10 29 10
19 1 34 -4 34 -10 0 -7 5 -5 10 3 8 13 13 13 31 2 11 -8 19 -10 16 -5 -3 5 10
10 29 10 19 1 34 -4 34 -10 0 -7 5 -5 10 3 8 13 13 13 31 2 11 -8 19 -10 16
-5 -3 5 10 10 29 10 19 1 34 -4 34 -10 0 -7 5 -5 10 3 8 13 13 13 31 2 11 -8
19 -10 16 -5 -3 5 10 10 29 10 19 1 34 -4 34 -10 0 -7 5 -5 10 3 8 13 13 13
31 2 11 -8 19 -10 16 -5 -3 5 10 10 29 10 19 1 34 -4 34 -10 0 -7 5 -5 10 3 8
13 13 13 31 2 11 -8 19 -10 16 -5 -3 5 10 10 29 10 19 1 34 -4 34 -10 0 -7 5
-5 10 3 8 13 13 13 31 2 11 -8 19 -9 15 -4 -8 13 58 11 66 -2 5 -7 8 -7 8 3 0
9 8 11 25 7 14 -4 25 -3 25 2 0 13 34 11 42 -2 5 -7 8 -4 8 7 0 10 5 15 10 12
6 -3 10 -2 10 3 0 5 12 14 26 20 20 10 24 10 18 0 -4 -7 14 10 39 37 26 28 57
70 69 95 l23 45 0 2340 0 2340 -21 46 c-28 60 -87 119 -150 150 l-49 24 -2320
1 c-1276 1 -2329 0 -2340 -3z"/>
<path d="M4996 95 c-9 -26 -7 -32 5 -12 6 10 9 21 6 23 -2 3 -7 -2 -11 -11z"/>
<path d="M370 60 c0 -5 5 -10 11 -10 5 0 7 5 4 10 -3 6 -8 10 -11 10 -2 0 -4
-4 -4 -10z"/>
<path d="M4920 60 c-9 -6 -10 -10 -3 -10 6 0 15 5 18 10 8 12 4 12 -15 0z"/>
</g>
</svg>
